<svg width="25" height="31" viewBox="0 0 25 31" fill="none" xmlns="http://www.w3.org/2000/svg">
<path d="M20.8787 16.4379C20.9219 21.1203 24.9549 22.6785 24.9995 22.6984C24.9654 22.8082 24.3551 24.9189 22.8748 27.099C21.5951 28.9839 20.2669 30.8618 18.1746 30.9007C16.119 30.9389 15.4578 29.6722 13.1074 29.6722C10.7577 29.6722 10.0233 30.8618 8.07717 30.9389C6.05764 31.0159 4.51975 28.9008 3.22952 27.0227C0.592799 23.1814 -1.42214 16.1678 1.28342 11.4336C2.62747 9.08251 5.02952 7.59382 7.63655 7.55563C9.61965 7.51755 11.4915 8.90015 12.7038 8.90015C13.9154 8.90015 16.1901 7.23747 18.5814 7.48163C19.5823 7.52365 22.3925 7.88906 24.1969 10.5507C24.0514 10.6416 20.8439 12.5233 20.8787 16.438M17.0152 4.94022C18.0874 3.63231 18.809 1.81168 18.6121 0C17.0666 0.0625905 15.1979 1.03786 14.0893 2.34498C13.0958 3.50261 12.2258 5.35532 12.4606 7.13108C14.1832 7.26542 15.9429 6.24891 17.0152 4.94022Z" fill="#121212"/>
</svg>
