<svg width="208" height="173" viewBox="0 0 208 173" fill="none" xmlns="http://www.w3.org/2000/svg">
<path opacity="0.1" d="M120.287 22.8565C107.015 22.3949 94.3742 18.1089 82.3035 13.4186C70.2328 8.72841 58.2769 3.53141 45.3224 1.04678C36.9902 -0.551508 27.4603 -0.777197 20.7482 3.69144C14.2863 8.00005 12.1987 15.417 11.0769 22.3067C10.232 27.4893 9.73574 32.9448 12.049 37.7951C13.6568 41.164 16.5073 43.9954 18.4801 47.2227C25.344 58.4497 20.4919 72.2947 13.0559 83.257C9.56963 88.4007 5.5194 93.3104 2.82677 98.7803C0.134141 104.25 -1.11066 110.526 1.24565 116.111C3.5794 121.651 9.14307 125.803 15.1702 128.727C27.4111 134.667 41.8299 136.366 55.9001 137.328C87.0366 139.46 118.337 138.536 149.556 137.613C161.11 137.271 172.713 136.924 184.078 135.137C190.39 134.144 196.905 132.57 201.489 128.766C207.305 123.938 208.746 115.764 204.848 109.71C198.31 99.5559 180.239 97.0343 175.664 86.1376C173.15 80.1384 175.731 73.458 179.388 67.8938C187.23 55.961 200.373 45.4911 201.064 31.8513C201.54 22.4831 195.222 13.1006 185.452 8.66685C175.213 4.02177 161.011 4.60446 153.46 12.2963C145.678 20.216 132.007 23.2628 120.287 22.8565Z" fill="#F37A20" fill-opacity="0.54"/>
<path opacity="0.1" d="M99.1515 168.674C133.579 168.674 161.488 164.896 161.488 160.237C161.488 155.578 133.579 151.8 99.1515 151.8C64.724 151.8 36.8149 155.578 36.8149 160.237C36.8149 164.896 64.724 168.674 99.1515 168.674Z" fill="#F37A20" fill-opacity="0.54"/>
<path d="M68.292 135.12C68.292 135.12 72.5986 134.43 75.1825 137.475C75.1825 137.475 73.2876 138.969 69.2107 136.901L68.292 135.12Z" fill="#5DBC5D"/>
<path d="M67.8325 135.052C67.8325 135.052 65.0845 138.454 66.4319 142.202C66.4319 142.202 68.6713 141.306 68.9153 136.739L67.8325 135.052Z" fill="#5DBC5D"/>
<path d="M65.3716 129.49C65.3716 129.49 67.0942 126.33 73.9847 130.754C73.9847 130.754 73.066 132.879 70.0227 132.707C66.9794 132.535 66.1652 131.156 65.3716 129.49Z" fill="#5DBC5D"/>
<path d="M64.9186 129.262C64.9186 129.262 61.3441 128.852 60.9976 137.038C60.9976 137.038 63.2636 137.51 64.8735 134.919C66.4833 132.328 65.8168 130.879 64.9186 129.262Z" fill="#5DBC5D"/>
<path d="M62.835 122.734C62.835 122.734 64.8447 117.159 72.1392 121.123C72.1392 121.123 70.474 126.238 63.5814 124.629L62.835 122.734Z" fill="#5DBC5D"/>
<path d="M60.5957 114.402C60.5957 114.402 64.3855 108.772 71.1058 113.991C71.1058 113.991 68.7515 119.277 61.1699 116.404L60.5957 114.402Z" fill="#5DBC5D"/>
<path d="M59.792 106.474C59.792 106.474 64.2134 101.304 70.866 106.474C70.866 106.474 66.6722 111.012 59.792 107.795V106.474Z" fill="#5DBC5D"/>
<path d="M59.1025 98.7758C59.1025 98.7758 63.5814 93.3736 69.9571 98.4886C69.9571 98.4886 64.9021 103.257 59.1025 100.04V98.7758Z" fill="#5DBC5D"/>
<path d="M59.5044 91.9374C59.5044 91.9374 64.2211 84.9862 70.1867 89.6969C70.1867 89.6969 65.1316 95.6736 59.5044 93.2587V91.9374Z" fill="#5DBC5D"/>
<path d="M60.5957 83.9521C60.5957 83.9521 65.5913 77.0583 71.3929 82.3436C71.3929 82.3436 65.4765 88.3182 60.5957 85.216V83.9521Z" fill="#5DBC5D"/>
<path d="M62.2628 76.8142C62.2628 76.8142 68.1751 70.337 73.3368 72.916C73.3368 72.916 67.1723 79.7954 62.0044 78.5315L62.2628 76.8142Z" fill="#5DBC5D"/>
<path d="M64.3281 70.0497C64.3281 70.0497 71.1633 62.1198 75.1253 64.7624C75.1253 64.7624 70.0969 70.9176 63.8462 71.5433L64.3281 70.0497Z" fill="#5DBC5D"/>
<path d="M67.3121 62.1998C67.3121 62.1998 73.288 55.7205 77.652 57.3291C77.652 57.3291 72.5415 64.0525 66.5103 64.2249L67.3121 62.1998Z" fill="#5DBC5D"/>
<path d="M70.0146 54.8588C70.0146 54.8588 76.6181 48.6544 79.4891 49.7459C79.4891 49.7459 74.7232 56.6397 69.7275 56.2375L70.0146 54.8588Z" fill="#5DBC5D"/>
<path d="M72.6558 48.0799C72.6558 48.0799 78.3404 40.6691 81.4412 41.2436C81.4412 41.2436 77.9959 47.8501 72.6558 48.835V48.0799Z" fill="#5DBC5D"/>
<path d="M75.521 38.9457C75.521 38.9457 80.5474 33.2624 83.2605 33.2768C83.2605 33.2768 79.2944 40.8681 75.3159 40.7984L75.521 38.9457Z" fill="#5DBC5D"/>
<path d="M77.2209 32.8541L82.073 21.0198C82.073 21.0198 82.317 31.7175 76.6016 35.0495L77.2209 32.8541Z" fill="#5DBC5D"/>
<path d="M79.1896 19.8032C79.1896 19.8032 79.9934 9.92209 79.4767 9.11782C79.4767 9.11782 82.9486 17.3247 79.1567 24.1692L79.1896 19.8032Z" fill="#5DBC5D"/>
<path d="M62.6486 122.6C62.6486 122.6 57.614 119.48 54.3574 127.114C54.3574 127.114 58.8363 130.089 63.2392 124.547L62.6486 122.6Z" fill="#5DBC5D"/>
<path d="M60.4355 114.084C60.4355 114.084 54.2627 111.267 51.2666 119.238C51.2666 119.238 56.0366 122.52 60.9974 116.098L60.4355 114.084Z" fill="#5DBC5D"/>
<path d="M59.5047 106.948C59.5047 106.948 55.0833 101.777 48.4307 106.948C48.4307 106.948 52.6224 111.486 59.5047 108.269V106.948Z" fill="#5DBC5D"/>
<path d="M58.9528 98.7758C58.9528 98.7758 54.4719 93.3736 48.0981 98.4886C48.0981 98.4886 53.1512 103.257 58.9528 100.04V98.7758Z" fill="#5DBC5D"/>
<path d="M59.5044 92.1343C59.5044 92.1343 56.3627 84.3481 49.5337 87.6965C49.5337 87.6965 53.225 94.6026 59.2276 93.4269L59.5044 92.1343Z" fill="#5DBC5D"/>
<path d="M60.9915 83.9131C60.9915 83.9131 57.8703 75.9915 50.9429 79.664C50.9429 79.664 55.1838 86.9251 60.6839 85.138L60.9915 83.9131Z" fill="#5DBC5D"/>
<path d="M62.9271 76.8553C62.9271 76.8553 61.6967 68.1683 55.9648 67.3907C55.9648 67.3907 57.1809 76.5496 62.1622 78.4187L62.9271 76.8553Z" fill="#5DBC5D"/>
<path d="M64.4755 70.0641C64.4755 70.0641 63.9936 59.6003 59.2461 59.2372C59.2461 59.2372 59.406 67.1773 63.9402 71.5475L64.4755 70.0641Z" fill="#5DBC5D"/>
<path d="M67.8061 61.9003C67.8061 61.9003 66.389 53.201 61.8589 52.1362C61.8589 52.1362 62.4208 60.5626 67.3569 64.0361L67.8061 61.9003Z" fill="#5DBC5D"/>
<path d="M70.5521 54.9224C70.5521 54.9224 70.5029 45.8579 67.7343 44.5264C67.7343 44.5264 66.0179 52.7332 69.7502 56.0796L70.5521 54.9224Z" fill="#5DBC5D"/>
<path d="M72.8674 47.9732C72.8674 47.9732 72.4778 38.6379 69.6129 37.3228C69.6129 37.3228 68.6306 44.7089 72.4368 48.5826L72.8674 47.9732Z" fill="#5DBC5D"/>
<path d="M75.9232 39.6843C75.9232 39.6843 75.9047 32.093 73.8581 30.3121C73.8581 30.3121 71.8237 38.6297 74.8547 41.2108L75.9232 39.6843Z" fill="#5DBC5D"/>
<path d="M76.9792 32.4807L74.99 19.8442C74.99 19.8442 72.283 30.1992 77.0735 34.7602L76.9792 32.4807Z" fill="#5DBC5D"/>
<path d="M77.3688 19.9221C77.3688 19.9221 72.2563 11.4301 72.363 10.4843C72.363 10.4843 72.9044 19.3887 79.3355 23.8204L77.3688 19.9221Z" fill="#5DBC5D"/>
<path d="M77.9673 17.415C77.9673 17.415 73.1439 5.34882 70.9619 4.3722C70.9619 4.3722 77.8524 7.87653 78.3692 17.0703L77.9673 17.415Z" fill="#5DBC5D"/>
<path d="M75.2892 40.864L74.959 40.7635C79.0297 27.4828 80.0469 19.0153 77.8198 16.8938L78.0577 16.6435C80.416 18.882 79.4604 27.2509 75.2892 40.864Z" fill="#444053"/>
<path d="M64.0798 71.9516L63.5938 71.7793C64.0244 70.5626 64.4899 69.3275 64.978 68.1088C69.2272 57.5137 72.8447 47.6593 75.1641 40.0926L75.5886 39.8874C73.2651 47.4685 69.7132 57.7025 65.4579 68.3098C64.9719 69.5163 64.5084 70.7473 64.0798 71.9516Z" fill="#444053"/>
<path d="M74.3519 145.06C74.2862 144.987 67.6869 137.555 63.0891 124.863C60.3931 117.435 58.8911 109.627 58.639 101.728C58.3232 91.8533 60.3945 80.8274 63.9423 70.813L64.3278 71.2643C56.3647 93.7429 59.529 113.007 63.7249 124.609C68.2775 137.184 74.7989 144.537 74.8645 144.609L74.3519 145.06Z" fill="#444053"/>
<path d="M133.17 59.4628H132.292C132.033 59.4628 131.822 59.6732 131.822 59.9327V73.9746C131.822 74.2341 132.033 74.4445 132.292 74.4445H133.17C133.429 74.4445 133.639 74.2341 133.639 73.9746V59.9327C133.639 59.6732 133.429 59.4628 133.17 59.4628Z" fill="#3A3768"/>
<path d="M71.9915 47.725H71.9115C71.6522 47.725 71.4419 47.9353 71.4419 48.1948V52.1875C71.4419 52.4469 71.6522 52.6573 71.9115 52.6573H71.9915C72.2509 52.6573 72.4611 52.4469 72.4611 52.1875V48.1948C72.4611 47.9353 72.2509 47.725 71.9915 47.725Z" fill="#3A3768"/>
<path d="M72.0841 56.7566H71.8749C71.6155 56.7566 71.4053 56.967 71.4053 57.2265V64.8712C71.4053 65.1306 71.6155 65.341 71.8749 65.341H72.0841C72.3434 65.341 72.5537 65.1306 72.5537 64.8712V57.2265C72.5537 56.967 72.3434 56.7566 72.0841 56.7566Z" fill="#3A3768"/>
<path d="M72.0473 68.3447H71.8935C71.6341 68.3447 71.4238 68.5551 71.4238 68.8146V76.5331C71.4238 76.7926 71.6341 77.003 71.8935 77.003H72.0473C72.3066 77.003 72.5169 76.7926 72.5169 76.5331V68.8146C72.5169 68.5551 72.3066 68.3447 72.0473 68.3447Z" fill="#3A3768"/>
<path d="M124.806 31.4261H80.0139C75.5979 31.4261 72.0181 35.0077 72.0181 39.4258V147.02C72.0181 151.438 75.5979 155.019 80.0139 155.019H124.806C129.222 155.019 132.802 151.438 132.802 147.02V39.4258C132.802 35.0077 129.222 31.4261 124.806 31.4261Z" fill="#3A3768"/>
<path d="M124.228 34.6371H117.255V35.4762C117.255 35.9986 117.153 36.5158 116.953 36.9983C116.753 37.4809 116.46 37.9193 116.091 38.2886C115.721 38.6578 115.283 38.9507 114.801 39.1504C114.318 39.3501 113.801 39.4527 113.279 39.4524H91.1043C90.5822 39.4527 90.0652 39.3501 89.5828 39.1504C89.1004 38.9507 88.662 38.6578 88.2927 38.2886C87.9234 37.9193 87.6305 37.4809 87.4307 36.9983C87.2308 36.5158 87.1279 35.9986 87.1279 35.4762V34.6371H80.6004C79.3201 34.6371 78.0922 35.1459 77.1869 36.0517C76.2816 36.9574 75.7729 38.1859 75.7729 39.4668V146.971C75.7729 148.252 76.2816 149.48 77.1869 150.386C78.0922 151.291 79.3201 151.8 80.6004 151.8H124.228C125.508 151.8 126.736 151.291 127.642 150.386C128.547 149.48 129.055 148.252 129.055 146.971V39.475C129.057 38.8401 128.932 38.2112 128.69 37.6242C128.448 37.0373 128.093 36.5039 127.644 36.0546C127.196 35.6052 126.664 35.2487 126.077 35.0055C125.491 34.7623 124.863 34.6371 124.228 34.6371Z" fill="#F6B042"/>
<path d="M104.242 35.1172H97.341C96.9027 35.1172 96.5474 35.4726 96.5474 35.9112V36.0466C96.5474 36.4851 96.9027 36.8406 97.341 36.8406H104.242C104.68 36.8406 105.035 36.4851 105.035 36.0466V35.9112C105.035 35.4726 104.68 35.1172 104.242 35.1172Z" fill="#E6E8EC"/>
<path d="M107.298 36.9576C107.838 36.9576 108.276 36.5194 108.276 35.9789C108.276 35.4384 107.838 35.0002 107.298 35.0002C106.757 35.0002 106.319 35.4384 106.319 35.9789C106.319 36.5194 106.757 36.9576 107.298 36.9576Z" fill="#E6E8EC"/>
<path d="M153.847 26.0055C153.847 26.0055 136.58 24.9632 138.614 37.0684C138.614 37.0684 138.204 39.2083 140.148 40.1788C140.148 40.1788 140.179 39.2822 141.92 39.5879C142.54 39.6907 143.17 39.721 143.797 39.6781C144.642 39.6225 145.447 39.2934 146.089 38.7405C146.089 38.7405 150.943 36.7339 152.83 28.7979C152.83 28.7979 154.227 27.0662 154.171 26.621L151.257 27.8664C151.257 27.8664 152.254 29.9694 151.462 31.7175C151.462 31.7175 151.368 27.9423 150.808 28.0244C150.695 28.0408 149.295 28.7528 149.295 28.7528C149.295 28.7528 151.007 32.4151 149.715 35.0782C149.715 35.0782 150.205 30.5644 148.759 29.0174L146.709 30.2156C146.709 30.2156 148.71 33.999 147.353 37.0868C147.353 37.0868 147.701 32.3515 146.276 30.507L144.418 31.9575C144.418 31.9575 146.299 35.6855 145.152 38.246C145.152 38.246 145.002 32.7351 144.016 32.3186C144.016 32.3186 142.39 33.7548 142.142 34.3416C142.142 34.3416 143.43 37.0499 142.63 38.4779C142.63 38.4779 142.14 34.8053 141.738 34.7848C141.738 34.7848 140.118 37.2181 139.949 38.8882C139.949 38.8882 140.019 36.4077 141.346 34.555C141.346 34.555 139.779 34.8238 138.865 35.8394C138.865 35.8394 139.117 34.12 141.746 33.9682C141.746 33.9682 143.085 32.1217 143.442 32.0109C143.442 32.0109 140.829 31.7913 139.244 32.4951C139.244 32.4951 140.638 30.8722 143.922 31.6108L145.757 30.111C145.757 30.111 142.316 29.6411 140.856 30.1602C140.856 30.1602 142.535 28.724 146.251 29.7704L148.249 28.5763C148.249 28.5763 145.314 27.9444 143.567 28.166C143.567 28.166 145.413 27.1709 148.835 28.2501L150.271 27.6079C150.271 27.6079 148.122 27.1852 147.492 27.1175C146.862 27.0498 146.83 26.8775 146.83 26.8775C148.191 26.6503 149.589 26.8059 150.868 27.3268C150.868 27.3268 153.899 26.1963 153.847 26.0055Z" fill="#5DBC5D"/>
<path d="M136.135 20.6218C136.135 20.6218 128.342 20.1519 129.253 25.6218C129.253 25.6218 129.07 26.5882 129.946 27.0272C129.946 27.0272 129.96 26.6169 130.748 26.7585C131.027 26.8056 131.312 26.8193 131.595 26.7995C131.977 26.7742 132.341 26.6243 132.63 26.3727C132.63 26.3727 134.825 25.4659 135.678 21.8795C135.678 21.8795 136.307 21.0978 136.283 20.8967L134.966 21.4589C134.966 21.4589 135.415 22.4088 135.062 23.1987C135.062 23.1987 135.019 21.4938 134.767 21.5327C134.716 21.5327 134.082 21.8631 134.082 21.8631C134.082 21.8631 134.857 23.5188 134.273 24.7211C134.273 24.7211 134.494 22.6817 133.84 21.9821L132.913 22.5319C132.913 22.5319 133.818 24.241 133.205 25.6362C133.205 25.6362 133.362 23.4962 132.718 22.6632L131.88 23.3198C131.88 23.3198 132.729 25.0042 132.212 26.1614C132.212 26.1614 132.142 23.6706 131.697 23.4819C131.697 23.4819 130.963 24.1302 130.85 24.3969C130.85 24.3969 131.433 25.628 131.072 26.2661C131.072 26.2661 130.85 24.6062 130.662 24.598C130.662 24.598 129.929 25.6977 129.854 26.4446C129.89 25.7482 130.108 25.0735 130.485 24.4872C130.063 24.5673 129.673 24.7691 129.363 25.0679C129.363 25.0679 129.478 24.2903 130.666 24.2225C130.666 24.2225 131.281 23.3875 131.433 23.3362C131.433 23.3362 130.251 23.2377 129.536 23.5557C129.536 23.5557 130.165 22.8233 131.648 23.1557L132.468 22.4786C132.468 22.4786 130.912 22.2734 130.253 22.5012C130.253 22.5012 131.012 21.8528 132.692 22.3247L133.594 21.7851C133.594 21.7851 132.267 21.4999 131.478 21.6025C131.478 21.6025 132.312 21.1532 133.859 21.6394L134.505 21.3501C134.505 21.3501 133.533 21.1593 133.248 21.1286C132.963 21.0978 132.948 21.0198 132.948 21.0198C133.564 20.9174 134.196 20.9884 134.773 21.225C134.773 21.225 136.16 20.708 136.135 20.6218Z" fill="#5DBC5D"/>
<path opacity="0.1" d="M115.119 123.271C115.119 123.271 117.032 123.339 117.477 123.579L115.119 123.271Z" fill="black"/>
<path opacity="0.1" d="M115.494 123.959C115.494 123.959 117.237 123.891 117.477 124.164L115.494 123.959Z" fill="black"/>
<path opacity="0.1" d="M114.042 134.47C114.042 134.47 112.914 135.399 112.945 136.166L114.042 134.47Z" fill="black"/>
<path opacity="0.1" d="M87.998 152.785C87.998 152.785 87.998 153.657 89.612 154.939L87.998 152.785Z" fill="black"/>
<path opacity="0.1" d="M116.485 150.733C116.485 150.733 116.313 152.547 114.742 153.487L116.485 150.733Z" fill="black"/>
<g opacity="0.1">
<path opacity="0.1" d="M97.1235 89.1737C97.1235 89.0322 97.0989 88.8865 97.0866 88.7429C97.0605 89.0562 97.0701 89.3714 97.1153 89.6826C97.1293 89.5133 97.1321 89.3433 97.1235 89.1737Z" fill="black"/>
<path opacity="0.1" d="M96.7973 94.9062C96.828 94.3112 96.3113 93.8332 96.1616 93.2648C96.1539 93.2373 96.1484 93.2091 96.1452 93.1807C96.0983 93.4122 96.104 93.6513 96.1616 93.8804C96.2826 94.3502 96.6476 94.7523 96.7624 95.2078C96.7727 95.1011 96.7932 95.0047 96.7973 94.9062Z" fill="black"/>
<path opacity="0.1" d="M111.14 92.3436C110.963 92.6928 110.714 93 110.408 93.2443C109.93 93.6855 109.338 94.1594 108.704 94.0158C107.763 93.8106 107.439 92.3744 106.479 92.2759C105.519 92.1774 104.881 93.507 103.911 93.4803C103.501 93.47 103.132 93.2012 102.755 93.0145C102.094 92.6883 101.01 92.4893 100.294 92.7355C99.2213 93.1028 98.8584 94.0958 98.1693 94.8857C97.9121 95.1797 97.607 95.4281 97.267 95.6202C97.1981 95.6657 97.1177 95.6906 97.0352 95.692C96.9838 95.6851 96.9352 95.6643 96.8947 95.6317C96.8542 95.5992 96.8234 95.5562 96.8056 95.5074V95.5217C96.7814 95.6738 96.7684 95.8274 96.7666 95.9813C96.7677 96.0581 96.795 96.1323 96.8438 96.1915C96.8926 96.2508 96.9601 96.2917 97.0352 96.3076C97.1177 96.3061 97.1981 96.2812 97.267 96.2357C97.607 96.0436 97.9121 95.7953 98.1693 95.5012C98.8625 94.7113 99.2213 93.7183 100.294 93.351C101.018 93.1048 102.103 93.3038 102.755 93.6301C103.132 93.8168 103.493 94.0855 103.911 94.0958C104.881 94.1204 105.515 92.7847 106.479 92.8914C107.443 92.9981 107.763 94.4179 108.704 94.6313C109.338 94.7749 109.934 94.301 110.408 93.8599C110.714 93.6155 110.963 93.3083 111.14 92.9591C111.255 92.6626 111.285 92.3404 111.228 92.0277C111.211 92.136 111.182 92.242 111.14 92.3436Z" fill="black"/>
</g>
<path opacity="0.1" d="M177.219 159.601C180.27 159.601 182.742 159.183 182.742 158.667C182.742 158.152 180.27 157.734 177.219 157.734C174.169 157.734 171.697 158.152 171.697 158.667C171.697 159.183 174.169 159.601 177.219 159.601Z" fill="#5DBC5D"/>
<path opacity="0.1" d="M18.6804 167.262C21.7305 167.262 24.203 166.844 24.203 166.329C24.203 165.813 21.7305 165.395 18.6804 165.395C15.6303 165.395 13.1577 165.813 13.1577 166.329C13.1577 166.844 15.6303 167.262 18.6804 167.262Z" fill="#5DBC5D"/>
<path opacity="0.1" d="M40.0432 172.27C43.0933 172.27 45.5658 171.852 45.5658 171.337C45.5658 170.821 43.0933 170.403 40.0432 170.403C36.9931 170.403 34.5205 170.821 34.5205 171.337C34.5205 171.852 36.9931 172.27 40.0432 172.27Z" fill="#5DBC5D"/>
<path d="M165.13 170.067C169.684 170.067 173.376 169.442 173.376 168.672C173.376 167.901 169.684 167.276 165.13 167.276C160.576 167.276 156.884 167.901 156.884 168.672C156.884 169.442 160.576 170.067 165.13 170.067Z" fill="#5DBC5D"/>
<path d="M168.541 166.39C168.917 166.083 169.191 165.668 169.326 165.202C169.429 164.732 169.228 164.176 168.777 163.994C168.272 163.801 167.733 164.152 167.325 164.505C166.917 164.858 166.447 165.262 165.912 165.186C166.187 164.937 166.394 164.62 166.51 164.267C166.627 163.915 166.651 163.538 166.578 163.173C166.554 163.022 166.49 162.88 166.392 162.763C166.113 162.463 165.604 162.59 165.27 162.828C164.204 163.577 163.906 165.028 163.9 166.331C163.791 165.861 163.884 165.37 163.88 164.894C163.876 164.418 163.746 163.869 163.338 163.616C163.086 163.481 162.804 163.415 162.518 163.423C162.038 163.405 161.505 163.454 161.177 163.805C160.767 164.24 160.877 164.97 161.23 165.446C161.583 165.922 162.122 166.228 162.618 166.558C163.015 166.795 163.354 167.118 163.609 167.504C163.64 167.558 163.664 167.615 163.683 167.675H166.679C167.355 167.332 167.981 166.9 168.541 166.39Z" fill="#5DBC5D"/>
<path d="M40.328 148.395C40.328 148.395 41.4559 149.87 39.8092 152.088C38.1624 154.305 36.8048 156.191 37.3483 157.58C37.3483 157.58 39.8338 153.446 41.8599 153.388C43.8861 153.331 42.5531 150.881 40.328 148.395Z" fill="#5DBC5D"/>
<path opacity="0.1" d="M40.3281 148.395C40.4264 148.537 40.5038 148.693 40.5578 148.858C42.5306 151.177 43.5826 153.341 41.6857 153.395C39.92 153.446 37.8016 156.605 37.293 157.404C37.3094 157.465 37.3299 157.525 37.3524 157.586C37.3524 157.586 39.838 153.452 41.8641 153.395C43.8902 153.337 42.5531 150.881 40.3281 148.395Z" fill="black"/>
<path d="M42.422 150.274C42.422 150.793 42.3645 151.214 42.2928 151.214C42.221 151.214 42.1636 150.793 42.1636 150.274C42.1636 149.755 42.2354 149.999 42.3071 149.999C42.3789 149.999 42.422 149.755 42.422 150.274Z" fill="#FFD037"/>
<path d="M43.142 150.893C42.6868 151.142 42.2889 151.292 42.2561 151.228C42.2233 151.164 42.5617 150.912 43.0169 150.664C43.4722 150.415 43.2938 150.596 43.3266 150.664C43.3594 150.731 43.5973 150.645 43.142 150.893Z" fill="#FFD037"/>
<path d="M34.3789 148.395C34.3789 148.395 33.251 149.87 34.8977 152.088C36.5445 154.305 37.9021 156.191 37.3586 157.58C37.3586 157.58 34.8752 153.446 32.847 153.388C30.8188 153.331 32.1497 150.881 34.3789 148.395Z" fill="#5DBC5D"/>
<path opacity="0.1" d="M34.3789 148.395C34.2803 148.537 34.2023 148.693 34.1472 148.858C32.1744 151.177 31.1244 153.341 33.0193 153.395C34.787 153.446 36.9055 156.605 37.414 157.404C37.3972 157.466 37.3767 157.527 37.3525 157.586C37.3525 157.586 34.8691 153.452 32.8409 153.395C30.8127 153.337 32.1498 150.881 34.3789 148.395Z" fill="black"/>
<path d="M32.2832 150.274C32.2832 150.793 32.3427 151.214 32.4145 151.214C32.4862 151.214 32.5436 150.793 32.5436 150.274C32.5436 149.755 32.4719 149.999 32.4001 149.999C32.3283 149.999 32.2832 149.755 32.2832 150.274Z" fill="#FFD037"/>
<path d="M31.5656 150.893C32.0209 151.142 32.4167 151.292 32.4515 151.228C32.4864 151.164 32.1439 150.912 31.6887 150.664C31.2334 150.415 31.4139 150.596 31.379 150.664C31.3441 150.731 31.1103 150.645 31.5656 150.893Z" fill="#FFD037"/>
<path d="M32.6421 157.393C32.6421 157.393 35.792 157.295 36.7436 156.62C37.6951 155.945 41.5895 155.134 41.8233 156.22C42.0571 157.305 46.5585 161.614 43.0025 161.642C39.4465 161.671 34.738 161.088 33.7905 160.512C32.8431 159.935 32.6421 157.393 32.6421 157.393Z" fill="#A8A8A8"/>
<path opacity="0.2" d="M43.064 161.265C39.508 161.294 34.7995 160.711 33.852 160.134C33.1322 159.693 32.8431 158.116 32.7467 157.389H32.6421C32.6421 157.389 32.8472 159.929 33.7885 160.508C34.7298 161.086 39.4444 161.667 43.0004 161.638C44.0258 161.638 44.3806 161.265 44.3621 160.723C44.2186 161.056 43.8269 161.259 43.064 161.265Z" fill="black"/>
</svg>
